<mxfile host="Electron" agent="Mozilla/5.0 (Windows NT 10.0; Win64; x64) AppleWebKit/537.36 (KHTML, like Gecko) draw.io/24.7.8 Chrome/128.0.6613.36 Electron/32.0.1 Safari/537.36" version="24.7.8">
  <diagram name="第 1 页" id="JW2E-lmaRw3Y76m3dUqc">
    <mxGraphModel dx="700" dy="414" grid="1" gridSize="10" guides="1" tooltips="1" connect="1" arrows="1" fold="1" page="1" pageScale="1" pageWidth="827" pageHeight="1169" background="none" math="0" shadow="0">
      <root>
        <mxCell id="0" />
        <mxCell id="1" parent="0" />
        <mxCell id="hfjjt0_t4IAt5DtSyIJC-1" value="&lt;font color=&quot;#1a1a1a&quot; style=&quot;font-size: 24px;&quot;&gt;6&lt;/font&gt;" style="ellipse;whiteSpace=wrap;html=1;aspect=fixed;labelBackgroundColor=none;fillColor=#F2CC8F;strokeColor=#E07A5F;fontColor=#393C56;" parent="1" vertex="1">
          <mxGeometry x="360" y="40" width="80" height="80" as="geometry" />
        </mxCell>
        <mxCell id="hfjjt0_t4IAt5DtSyIJC-2" value="&lt;font style=&quot;font-size: 24px;&quot;&gt;16&lt;/font&gt;" style="ellipse;whiteSpace=wrap;html=1;aspect=fixed;labelBackgroundColor=none;fillColor=#F2CC8F;strokeColor=#E07A5F;fontColor=#393C56;" parent="1" vertex="1">
          <mxGeometry x="200" y="200" width="80" height="80" as="geometry" />
        </mxCell>
        <mxCell id="hfjjt0_t4IAt5DtSyIJC-3" value="&lt;font style=&quot;font-size: 24px;&quot;&gt;26&lt;/font&gt;" style="ellipse;whiteSpace=wrap;html=1;aspect=fixed;labelBackgroundColor=none;fillColor=#F2CC8F;strokeColor=#E07A5F;fontColor=#393C56;" parent="1" vertex="1">
          <mxGeometry x="360" y="200" width="80" height="80" as="geometry" />
        </mxCell>
        <mxCell id="hfjjt0_t4IAt5DtSyIJC-4" value="&lt;font style=&quot;font-size: 24px;&quot;&gt;36&lt;/font&gt;" style="ellipse;whiteSpace=wrap;html=1;aspect=fixed;labelBackgroundColor=none;fillColor=#F2CC8F;strokeColor=#E07A5F;fontColor=#393C56;" parent="1" vertex="1">
          <mxGeometry x="540" y="200" width="80" height="80" as="geometry" />
        </mxCell>
        <mxCell id="hfjjt0_t4IAt5DtSyIJC-6" value="" style="endArrow=none;html=1;rounded=0;entryX=0;entryY=1;entryDx=0;entryDy=0;labelBackgroundColor=none;strokeColor=#E07A5F;fontColor=default;" parent="1" source="hfjjt0_t4IAt5DtSyIJC-2" target="hfjjt0_t4IAt5DtSyIJC-1" edge="1">
          <mxGeometry width="50" height="50" relative="1" as="geometry">
            <mxPoint x="390" y="350" as="sourcePoint" />
            <mxPoint x="440" y="300" as="targetPoint" />
          </mxGeometry>
        </mxCell>
        <mxCell id="hfjjt0_t4IAt5DtSyIJC-7" value="" style="endArrow=none;html=1;rounded=0;strokeColor=#E07A5F;fontColor=#393C56;fillColor=#F2CC8F;entryX=0.5;entryY=1;entryDx=0;entryDy=0;exitX=0.5;exitY=0;exitDx=0;exitDy=0;" parent="1" source="hfjjt0_t4IAt5DtSyIJC-3" target="hfjjt0_t4IAt5DtSyIJC-1" edge="1">
          <mxGeometry width="50" height="50" relative="1" as="geometry">
            <mxPoint x="390" y="250" as="sourcePoint" />
            <mxPoint x="440" y="200" as="targetPoint" />
          </mxGeometry>
        </mxCell>
        <mxCell id="hfjjt0_t4IAt5DtSyIJC-8" value="" style="endArrow=none;html=1;rounded=0;strokeColor=#E07A5F;fontColor=#393C56;fillColor=#F2CC8F;entryX=1;entryY=1;entryDx=0;entryDy=0;" parent="1" source="hfjjt0_t4IAt5DtSyIJC-4" target="hfjjt0_t4IAt5DtSyIJC-1" edge="1">
          <mxGeometry width="50" height="50" relative="1" as="geometry">
            <mxPoint x="390" y="250" as="sourcePoint" />
            <mxPoint x="440" y="200" as="targetPoint" />
          </mxGeometry>
        </mxCell>
        <mxCell id="hfjjt0_t4IAt5DtSyIJC-10" value="&lt;font style=&quot;font-size: 24px;&quot;&gt;126&lt;/font&gt;" style="ellipse;whiteSpace=wrap;html=1;aspect=fixed;labelBackgroundColor=none;fillColor=#F2CC8F;strokeColor=#E07A5F;fontColor=#393C56;" parent="1" vertex="1">
          <mxGeometry x="280" y="330" width="80" height="80" as="geometry" />
        </mxCell>
        <mxCell id="hfjjt0_t4IAt5DtSyIJC-11" value="&lt;font style=&quot;font-size: 24px;&quot;&gt;136&lt;/font&gt;" style="ellipse;whiteSpace=wrap;html=1;aspect=fixed;labelBackgroundColor=none;fillColor=#F2CC8F;strokeColor=#E07A5F;fontColor=#393C56;" parent="1" vertex="1">
          <mxGeometry x="450" y="330" width="80" height="80" as="geometry" />
        </mxCell>
        <mxCell id="hfjjt0_t4IAt5DtSyIJC-12" value="" style="endArrow=none;html=1;rounded=0;entryX=0;entryY=1;entryDx=0;entryDy=0;labelBackgroundColor=none;strokeColor=#E07A5F;fontColor=default;exitX=0.625;exitY=0;exitDx=0;exitDy=0;exitPerimeter=0;" parent="1" source="hfjjt0_t4IAt5DtSyIJC-10" target="hfjjt0_t4IAt5DtSyIJC-3" edge="1">
          <mxGeometry width="50" height="50" relative="1" as="geometry">
            <mxPoint x="278" y="222" as="sourcePoint" />
            <mxPoint x="382" y="118" as="targetPoint" />
          </mxGeometry>
        </mxCell>
        <mxCell id="hfjjt0_t4IAt5DtSyIJC-14" value="" style="endArrow=none;html=1;rounded=0;strokeColor=#E07A5F;fontColor=#393C56;fillColor=#F2CC8F;entryX=0.209;entryY=0.938;entryDx=0;entryDy=0;exitX=1;exitY=0;exitDx=0;exitDy=0;entryPerimeter=0;" parent="1" source="hfjjt0_t4IAt5DtSyIJC-11" target="hfjjt0_t4IAt5DtSyIJC-4" edge="1">
          <mxGeometry width="50" height="50" relative="1" as="geometry">
            <mxPoint x="489.65999999999997" y="330" as="sourcePoint" />
            <mxPoint x="489.65999999999997" y="250" as="targetPoint" />
          </mxGeometry>
        </mxCell>
        <mxCell id="xCHzSrLi5lzMPachwuax-4" value="" style="shape=curlyBracket;whiteSpace=wrap;html=1;rounded=1;flipH=1;labelPosition=right;verticalLabelPosition=middle;align=left;verticalAlign=middle;rotation=30;" parent="1" vertex="1">
          <mxGeometry x="387.5" y="252.01" width="30" height="160" as="geometry" />
        </mxCell>
        <mxCell id="xCHzSrLi5lzMPachwuax-5" value="&lt;font style=&quot;font-size: 17px;&quot;&gt;f(2)&lt;/font&gt;" style="text;html=1;align=center;verticalAlign=middle;resizable=0;points=[];autosize=1;strokeColor=none;fillColor=none;" parent="1" vertex="1">
          <mxGeometry x="400" y="327.01" width="50" height="30" as="geometry" />
        </mxCell>
        <mxCell id="xCHzSrLi5lzMPachwuax-6" value="" style="shape=curlyBracket;whiteSpace=wrap;html=1;rounded=1;flipH=1;labelPosition=right;verticalLabelPosition=middle;align=left;verticalAlign=middle;rotation=30;" parent="1" vertex="1">
          <mxGeometry x="565" y="250" width="30" height="160" as="geometry" />
        </mxCell>
        <mxCell id="xCHzSrLi5lzMPachwuax-7" value="&lt;font style=&quot;font-size: 17px;&quot;&gt;f(3)&lt;/font&gt;" style="text;html=1;align=center;verticalAlign=middle;resizable=0;points=[];autosize=1;strokeColor=none;fillColor=none;" parent="1" vertex="1">
          <mxGeometry x="580" y="328" width="50" height="30" as="geometry" />
        </mxCell>
        <mxCell id="xCHzSrLi5lzMPachwuax-8" value="" style="shape=curlyBracket;whiteSpace=wrap;html=1;rounded=1;flipH=1;labelPosition=right;verticalLabelPosition=middle;align=left;verticalAlign=middle;rotation=135;" parent="1" vertex="1">
          <mxGeometry x="200" y="250" width="19.6" height="47.99" as="geometry" />
        </mxCell>
        <mxCell id="xCHzSrLi5lzMPachwuax-10" value="&lt;font style=&quot;font-size: 17px;&quot;&gt;f(1)&lt;/font&gt;" style="text;html=1;align=center;verticalAlign=middle;resizable=0;points=[];autosize=1;strokeColor=none;fillColor=none;" parent="1" vertex="1">
          <mxGeometry x="169.6" y="280" width="50" height="30" as="geometry" />
        </mxCell>
      </root>
    </mxGraphModel>
  </diagram>
</mxfile>
